<?xml version="1.0" encoding="utf-8"?>
<!-- Generator: Adobe Illustrator 25.2.3, SVG Export Plug-In . SVG Version: 6.00 Build 0)  -->
<svg version="1.1" id="Capa_1" xmlns="http://www.w3.org/2000/svg" xmlns:xlink="http://www.w3.org/1999/xlink" x="0px" y="0px"
	 viewBox="0 0 100 100" style="enable-background:new 0 0 100 100;" xml:space="preserve">
<style type="text/css">
	.st0{fill:#FAF1A9;}
	.st1{fill:#DFB5A7;}
	.st2{fill:#F6E06E;}
	.st3{fill:#DDA86A;}
	.st4{fill:#3C122C;}
	.st5{fill:#FFFFFF;}
</style>
<g>
	<g>
		<path class="st0" d="M58.5,78c-16.7,0-30.4-13.9-30.3-30.6c0.2-16.6,13.7-29.9,30.3-29.9h0c0.3,0,0.4-0.4,0.1-0.5
			c-4.4-1.6-9.2-2.6-14.2-2.6C21.2,14.1,2.2,32.9,2.2,56.1C2.1,79.3,20.9,98,44,98c20.9,0,38.1-15.2,41.3-35.2
			c0-0.3-0.4-0.5-0.5-0.2C79.6,71.8,69.8,78,58.5,78L58.5,78z"/>
		<path class="st1" d="M50.8,16.6c0.3,0.1,0.2,0.5-0.1,0.5c0,0,0,0,0,0c-14.3,0-25.9,11.5-26.1,25.8c-0.1,6.5,2.3,12.4,6.2,17.1
			c-1.7-3.8-2.6-8.1-2.6-12.5c0.2-16.6,13.7-29.9,30.3-29.9h0c0.3,0,0.4-0.4,0.1-0.5c-4.4-1.6-9.2-2.6-14.2-2.6
			c-1.1,0-2.3,0-3.4,0.1C44.5,14.7,47.7,15.4,50.8,16.6L50.8,16.6z"/>
		<path class="st1" d="M84.8,62.6c-4.7,8.3-13.2,14.1-23.2,15.2c-6.3,5.4-14.5,8.6-23.4,8.6c-19,0-34.5-14.7-36-33.3
			c-0.1,1-0.1,1.9-0.1,2.9C2.1,79.3,20.9,98,44,98c20.9,0,38.1-15.2,41.3-35.2C85.4,62.5,85,62.4,84.8,62.6z"/>
		<path class="st2" d="M68.2,30.6l3.1,6.2l6.9,1c2,0.3,2.7,2.7,1.3,4.1l-5,4.9l1.2,6.9c0.3,1.9-1.7,3.4-3.5,2.5L66,52.9l-6.2,3.2
			c-1.7,0.9-3.8-0.6-3.5-2.5l1.2-6.9l-5-4.9c-1.4-1.4-0.6-3.8,1.3-4.1l6.9-1l3.1-6.2C64.8,28.8,67.3,28.8,68.2,30.6L68.2,30.6z"/>
		<path class="st3" d="M79.1,38.2l-5.8-0.8c0.1,0.5-0.1,1-0.5,1.4c-2.3,2.2-3.3,5.4-2.8,8.5c0.2,1.4-1.2,2.5-2.5,1.8
			c-2.8-1.5-6.1-1.5-8.9,0c-0.1,0.1-0.3,0.1-0.4,0.2L57.4,54c-0.3,1.9,1.7,3.4,3.5,2.5l6.2-3.2l6.2,3.2c1.7,0.9,3.8-0.6,3.5-2.5
			l-1.2-6.9l5-4.9C81.8,40.9,81.1,38.5,79.1,38.2L79.1,38.2z"/>
		<path class="st0" d="M74,0.5L75.6,5c0.1,0.2,0.2,0.3,0.4,0.4l4,1.8c0.6,0.3,0.6,1.2,0,1.4l-4,1.8c-0.2,0.1-0.3,0.2-0.4,0.4
			L74,15.5c-0.2,0.6-1,0.6-1.3,0l-1.6-4.5c-0.1-0.2-0.2-0.3-0.4-0.4l-4-1.8c-0.6-0.3-0.6-1.2,0-1.4l4-1.8c0.2-0.1,0.3-0.2,0.4-0.4
			l1.6-4.5C73-0.2,73.8-0.2,74,0.5z"/>
		<path class="st0" d="M95,21.9l1.2,3.4c0.1,0.1,0.2,0.3,0.3,0.3l3,1.3c0.4,0.2,0.4,0.9,0,1.1l-3,1.3c-0.1,0.1-0.2,0.2-0.3,0.3
			L95,33c-0.2,0.5-0.8,0.5-0.9,0l-1.2-3.4c-0.1-0.1-0.2-0.3-0.3-0.3l-3-1.3c-0.4-0.2-0.4-0.9,0-1.1l3-1.3c0.1-0.1,0.2-0.2,0.3-0.3
			l1.2-3.4C94.3,21.4,94.9,21.4,95,21.9z"/>
		<g>
			<circle class="st2" cx="8.5" cy="11.6" r="3.5"/>
			<path class="st2" d="M93.9,48.1c0,0.8-0.7,1.5-1.5,1.5s-1.5-0.7-1.5-1.5s0.7-1.5,1.5-1.5S93.9,47.2,93.9,48.1z"/>
		</g>
	</g>
	<g>
		<g>
			<path class="st4" d="M44,100c-11.7,0-22.7-4.6-31-12.9c-8.3-8.3-12.8-19.3-12.8-31c0-11.7,4.6-22.8,13-31.1
				c8.4-8.3,19.5-12.8,31.2-12.7c5.1,0,10.1,1,14.9,2.7c1,0.4,1.6,1.4,1.4,2.5c-0.2,1.1-1.1,1.8-2.2,1.8c0,0,0,0,0,0
				c-15.5,0-28.1,12.6-28.3,28C30.1,55,33,62.1,38.4,67.6C43.8,73,51,76,58.5,76c10.2,0,19.6-5.5,24.6-14.4c0.5-0.9,1.7-1.4,2.7-1
				c1,0.4,1.6,1.4,1.5,2.5c-1.6,10.2-6.9,19.5-14.7,26.3C64.7,96.2,54.5,100,44,100z M44,16.3c-10.5,0-20.5,4.1-28,11.6
				C8.3,35.4,4.1,45.4,4.1,56.1c0,10.7,4.1,20.7,11.7,28.3c7.5,7.5,17.6,11.7,28.2,11.7c16.9,0,31.5-10.4,37.3-25.6
				c-6,6-14.1,9.4-22.8,9.4c-8.6,0-16.7-3.4-22.9-9.6c-6.1-6.2-9.5-14.4-9.4-23c0.1-8.5,3.5-16.5,9.6-22.5c4-3.9,8.8-6.7,14-8.1
				c-1.8-0.3-3.6-0.4-5.4-0.4C44.3,16.3,44.1,16.3,44,16.3L44,16.3z"/>
			<path class="st4" d="M15.3,68.9c-2.9,0-5.7-2.2-6.6-5.5c-1-3.9,0.9-7.7,4.3-8.7c1.7-0.4,3.4-0.1,5,0.9c1.5,1,2.6,2.6,3.1,4.4
				c0.5,1.8,0.3,3.7-0.4,5.4c-0.8,1.7-2.2,2.8-3.9,3.3C16.3,68.8,15.8,68.9,15.3,68.9L15.3,68.9z M14.5,56.9c-0.3,0-0.6,0-0.9,0.1
				c-2.1,0.6-3.3,3.2-2.6,5.8c0.7,2.6,3,4.3,5.2,3.7c1-0.3,1.8-1,2.3-2c0.5-1.1,0.6-2.4,0.3-3.7c-0.3-1.3-1.1-2.4-2.1-3.1
				C16,57.1,15.2,56.9,14.5,56.9L14.5,56.9z"/>
			<path class="st4" d="M30.9,84.1c-1.5,0-3.1-0.7-4.3-2.1c-0.9-1.1-1.4-2.4-1.4-3.8c0-1.4,0.6-2.7,1.6-3.5c1-0.9,2.3-1.2,3.7-1
				c1.3,0.2,2.6,0.9,3.5,2c0.9,1.1,1.4,2.4,1.4,3.8c0,1.4-0.6,2.7-1.6,3.5C33,83.7,32,84.1,30.9,84.1z M29.7,76
				c-0.5,0-1,0.2-1.4,0.5c-0.5,0.4-0.7,1-0.7,1.8c0,0.8,0.3,1.6,0.9,2.2c1.1,1.3,2.9,1.6,3.9,0.7c0.5-0.4,0.7-1,0.7-1.8
				c0-0.8-0.3-1.6-0.9-2.2c0,0,0,0,0,0c-0.6-0.7-1.3-1.1-2.1-1.2C30,76,29.9,76,29.7,76L29.7,76z"/>
		</g>
		<path class="st5" d="M11.9,47c-0.1,0-0.3,0-0.4,0c-1.1-0.2-1.7-1.3-1.5-2.4c1.2-5.3,4.2-8.7,4.3-8.9c0.7-0.8,2-0.9,2.8-0.2
			c0.8,0.7,0.9,2,0.2,2.8c0,0.1-2.5,2.9-3.4,7.2C13.6,46.4,12.8,47,11.9,47L11.9,47z"/>
		<path class="st4" d="M58.8,58.4c-0.9,0-1.8-0.3-2.6-0.8c-1.3-1-2-2.6-1.7-4.3l1-5.8l-4.2-4.1c-1.2-1.2-1.6-2.9-1.1-4.5
			s1.9-2.7,3.5-3l5.9-0.9l2.6-5.3c0.7-1.5,2.2-2.4,3.9-2.4c1.7,0,3.2,0.9,3.9,2.4h0l2.6,5.3l5.9,0.9c1.6,0.2,3,1.4,3.5,3
			s0.1,3.3-1.1,4.5l-4.2,4.1l1,5.8c0.3,1.6-0.4,3.3-1.7,4.3c-1.3,1-3.1,1.1-4.6,0.3L66,55.1l-5.2,2.8C60.1,58.2,59.4,58.4,58.8,58.4
			L58.8,58.4z M66,31.2c-0.2,0-0.3,0.1-0.4,0.2l-3.1,6.2c-0.3,0.6-0.8,1-1.5,1.1l-6.9,1c-0.2,0-0.3,0.1-0.3,0.3
			c-0.1,0.2,0,0.3,0.1,0.4l5,4.9c0.5,0.5,0.7,1.1,0.6,1.7l-1.2,6.9c0,0.2,0,0.3,0.2,0.4c0.1,0.1,0.3,0.1,0.4,0l6.2-3.2
			c0.6-0.3,1.3-0.3,1.8,0l6.2,3.2c0.2,0.1,0.3,0.1,0.4,0c0.1-0.1,0.2-0.2,0.2-0.4l-1.2-6.9c-0.1-0.6,0.1-1.3,0.6-1.7l5-4.9
			c0.1-0.1,0.2-0.3,0.1-0.4c-0.1-0.2-0.2-0.3-0.3-0.3l-6.9-1c-0.6-0.1-1.2-0.5-1.5-1.1l-3.1-6.2C66.3,31.3,66.2,31.2,66,31.2z"/>
	</g>
</g>
</svg>
