<?xml version="1.0" encoding="utf-8"?>
<!-- Generator: Adobe Illustrator 25.2.3, SVG Export Plug-In . SVG Version: 6.00 Build 0)  -->
<svg version="1.1" id="Capa_1" xmlns="http://www.w3.org/2000/svg" xmlns:xlink="http://www.w3.org/1999/xlink" x="0px" y="0px"
	 viewBox="0 0 100 100" style="enable-background:new 0 0 100 100;" xml:space="preserve">
<style type="text/css">
	.st0{fill:#FAF1A9;}
	.st1{fill:#DFB5A7;}
	.st2{fill:#D789B9;}
	.st3{fill:#FFFFFF;}
	.st4{fill:#C668B9;}
	.st5{fill:#E1BDFC;}
	.st6{fill:#E8C2D8;}
	.st7{fill:#3C122C;}
</style>
<g>
	<g>
		<path class="st0" d="M61.8,89.5c0,11.5-26.7,11.5-26.7,0l1.6-5.5c2.1-7.3,2.5-14.9,1.3-22.4l-0.9-5.4c0,0-0.7-8.5,11.3-8.5
			s11.2,8.5,11.2,8.5l-0.8,5C57.5,68.8,58,76.6,60.1,84L61.8,89.5z"/>
		<path class="st1" d="M58.4,64H38.3c0.4,3.3,0.4,6.7,0.2,10c1.2-0.7,3.1-1.3,6.2-1.3c8.7,0,8,4.3,8,4.3s0,5.3,0.2,7.7
			c0.2,2.4,1.4,9,1.4,9c0,2.5-3.6,3.9-7.8,4.3c7.2,0.6,15.2-2.3,15.2-8.5L60.1,84C58.2,77.5,57.6,70.7,58.4,64L58.4,64z"/>
		<path class="st2" d="M86.7,53.3c0,15-76.6,15-76.6,0c0-18.7,17.1-33.9,38.3-33.9S86.7,34.6,86.7,53.3L86.7,53.3z"/>
		<g>
			<ellipse transform="matrix(0.3081 -0.9513 0.9513 0.3081 9.096 80.6381)" class="st3" cx="60" cy="34.1" rx="3.5" ry="5.5"/>
			<ellipse transform="matrix(0.19 -0.9818 0.9818 0.19 6.879 106.8291)" class="st3" cx="68.2" cy="49.2" rx="5" ry="7.7"/>
			
				<ellipse transform="matrix(0.9992 -4.000798e-02 4.000798e-02 0.9992 -1.7701 1.289)" class="st3" cx="31.3" cy="44.9" rx="7.3" ry="4.7"/>
		</g>
		<path class="st4" d="M48.4,19.4c-1.6,0-3.1,0.1-4.6,0.2c14.4,1.8,25.5,12.7,25.5,25.9c0,10.9-52.5,11.5-58.6,1.9
			c-0.4,1.9-0.6,3.8-0.6,5.8c0,15,76.6,15,76.6,0C86.7,34.6,69.5,19.4,48.4,19.4z"/>
		<path class="st5" d="M75.8,50.7c0.5-2.7-2.4-5.5-6.5-6.3c0,0.4,0,0.8,0,1.2c0,2.5-2.8,4.5-7.3,5.9c1.2,1.2,3.1,2.2,5.2,2.6
			C71.4,55,75.2,53.4,75.8,50.7z"/>
		<path class="st6" d="M9.3,2.4l1.6,4.6c0.1,0.2,0.2,0.4,0.4,0.4l4.1,1.8c0.6,0.3,0.6,1.2,0,1.4l-4.1,1.8c-0.2,0.1-0.3,0.2-0.4,0.4
			l-1.6,4.6c-0.2,0.7-1.1,0.7-1.3,0l-1.6-4.6c-0.1-0.2-0.2-0.4-0.4-0.4l-4.1-1.8c-0.6-0.3-0.6-1.2,0-1.4L6,7.5
			c0.2-0.1,0.3-0.2,0.4-0.4L8,2.4C8.2,1.8,9.1,1.8,9.3,2.4z"/>
		<path class="st6" d="M93.7,16.8l1.2,3.4c0.1,0.1,0.2,0.3,0.3,0.3l3,1.4c0.4,0.2,0.4,0.9,0,1.1l-3,1.4c-0.1,0.1-0.2,0.2-0.3,0.3
			l-1.2,3.4c-0.2,0.5-0.8,0.5-1,0l-1.2-3.4c-0.1-0.1-0.2-0.3-0.3-0.3l-3-1.4c-0.4-0.2-0.4-0.9,0-1.1l3-1.4c0.1-0.1,0.2-0.2,0.3-0.3
			l1.2-3.4C92.9,16.3,93.5,16.3,93.7,16.8z"/>
		<ellipse class="st2" cx="76" cy="3.6" rx="3.6" ry="3.6"/>
		<circle class="st2" cx="28.5" cy="10.4" r="1.5"/>
	</g>
	<g>
		<path class="st7" d="M76.8,27.8c-7.6-6.7-17.7-10.4-28.4-10.4S27.6,21.1,20,27.8C12.3,34.6,8.1,43.7,8.1,53.3
			c0,4.5,4.5,8,13.5,10.4c4.2,1.1,9.3,1.9,14.9,2.4c0.4,5.8-0.2,11.7-1.8,17.3l-1.6,5.5c-0.1,0.2-0.1,0.4-0.1,0.5
			c0,3.4,1.8,6.3,5.2,8.2c2.7,1.6,6.3,2.4,10.2,2.4s7.5-0.9,10.2-2.4c3.3-1.9,5.2-4.8,5.2-8.2c0-0.2,0-0.4-0.1-0.6l-1.6-5.5
			c-1.6-5.6-2.3-11.5-1.9-17.4c5.6-0.5,10.8-1.3,15-2.4c8.9-2.3,13.5-5.8,13.5-10.4C88.7,43.7,84.5,34.6,76.8,27.8L76.8,27.8z
			 M58.2,84.5l1.5,5.2c-0.2,4.2-5.8,6.3-11.3,6.3c-5.5,0-11.1-2.2-11.3-6.3l1.5-5.2c1.7-5.9,2.3-12.1,1.9-18.2
			c2.6,0.1,5.2,0.2,7.9,0.2c2.6,0,5.2-0.1,7.8-0.2C55.8,72.5,56.5,78.7,58.2,84.5L58.2,84.5z M48.4,62.5c-22.4,0-36.3-4.8-36.3-9.2
			c0-17.6,16.3-31.9,36.3-31.9s36.3,14.3,36.3,31.9C84.7,57.7,70.8,62.5,48.4,62.5L48.4,62.5z"/>
		<path class="st3" d="M43.6,29.4c-1,0-1.9-0.8-2-1.8c-0.1-1.1,0.7-2.1,1.8-2.1c0.8-0.1,1.7-0.1,2.6-0.1h0c1.1,0,2,0.9,2,2
			c0,1.1-0.9,2-2,2c-0.8,0-1.5,0-2.3,0.1C43.7,29.4,43.7,29.4,43.6,29.4z"/>
		<path class="st3" d="M27.5,35.4c-0.6,0-1.2-0.3-1.6-0.8c-0.7-0.9-0.5-2.1,0.4-2.8c3-2.2,6.3-3.9,9.8-5c1.1-0.3,2.2,0.2,2.5,1.3
			c0.3,1.1-0.2,2.2-1.3,2.5c-3.1,1-6,2.5-8.6,4.4C28.3,35.3,27.9,35.4,27.5,35.4L27.5,35.4z"/>
		<g>
			<path class="st7" d="M61.4,39c-0.9,0-1.9-0.2-2.8-0.5c-1.6-0.5-3-1.4-3.9-2.5c-1-1.3-1.4-2.7-1-4c0.4-1.3,1.5-2.2,3.1-2.7
				c1.4-0.4,3.1-0.3,4.7,0.2c1.6,0.5,3,1.4,3.9,2.5c1,1.3,1.4,2.7,1,4c-0.4,1.3-1.5,2.2-3.1,2.7C62.6,38.9,62,39,61.4,39L61.4,39z
				 M58.7,31.5c-0.4,0-0.9,0-1.2,0.1c-0.4,0.1-1.2,0.4-1.5,1.1c-0.2,0.7,0.2,1.4,0.5,1.7c0.6,0.8,1.6,1.4,2.8,1.8
				c1.2,0.4,2.4,0.4,3.3,0.2c0.4-0.1,1.2-0.4,1.5-1.1c0.2-0.7-0.2-1.4-0.5-1.7c-0.6-0.8-1.6-1.4-2.8-1.8
				C60,31.6,59.3,31.5,58.7,31.5z"/>
			<path class="st7" d="M69.4,55.6c-0.8,0-1.6-0.1-2.5-0.2c-2.3-0.4-4.3-1.4-5.7-2.8c-1.6-1.5-2.2-3.3-1.9-5
				c0.3-1.7,1.6-3.1,3.6-3.9c1.8-0.7,4.1-0.9,6.3-0.5c4.9,1,8.3,4.4,7.6,7.8c-0.3,1.7-1.6,3.1-3.6,3.9
				C72.1,55.3,70.8,55.6,69.4,55.6z M66.9,45.3c-1.1,0-2.1,0.2-3,0.5c-0.7,0.3-1.9,0.9-2.2,2.1c-0.2,1.2,0.7,2.3,1.2,2.8
				c1.1,1,2.7,1.8,4.5,2.2c1.8,0.3,3.6,0.2,5-0.3c0.7-0.3,1.9-0.9,2.2-2.1c0.4-2-2.2-4.3-5.7-5C68.2,45.4,67.5,45.3,66.9,45.3
				L66.9,45.3z M75.8,50.7L75.8,50.7L75.8,50.7z"/>
			<path class="st7" d="M31.1,50.8c-2,0-3.9-0.5-5.3-1.3c-1.8-1-2.8-2.5-2.8-4.2c-0.1-1.7,0.8-3.2,2.5-4.4c1.5-1.1,3.6-1.7,5.7-1.8
				c2.2-0.1,4.2,0.4,5.8,1.3c1.8,1,2.8,2.5,2.8,4.2c0.1,1.7-0.8,3.2-2.5,4.4c-1.5,1.1-3.6,1.7-5.7,1.8
				C31.4,50.7,31.2,50.8,31.1,50.8L31.1,50.8z M31.6,41.4c-0.1,0-0.3,0-0.4,0c-1.7,0.1-3.3,0.6-4.4,1.4c-0.6,0.4-1.5,1.2-1.5,2.4
				c0,1.1,1.1,1.9,1.7,2.2c1.2,0.7,2.8,1.1,4.5,1c1.7-0.1,3.3-0.6,4.4-1.4c0.6-0.4,1.5-1.2,1.5-2.4v0c0-1.1-1.1-1.9-1.7-2.2
				C34.6,41.7,33.1,41.4,31.6,41.4L31.6,41.4z"/>
			<path class="st7" d="M47.4,51.9c-0.7,0-1.2-0.5-1.2-1.2v-2.3c0-0.7,0.5-1.2,1.2-1.2c0.7,0,1.2,0.5,1.2,1.2v2.3
				C48.6,51.4,48,51.9,47.4,51.9z"/>
			<path class="st7" d="M55.6,58.2c-0.7,0-1.2-0.5-1.2-1.2v-2.3c0-0.7,0.5-1.2,1.2-1.2c0.7,0,1.2,0.5,1.2,1.2V57
				C56.8,57.6,56.3,58.2,55.6,58.2z"/>
			<path class="st7" d="M72.7,40.2c-0.7,0-1.2-0.5-1.2-1.2v-2.3c0-0.7,0.5-1.2,1.2-1.2s1.2,0.5,1.2,1.2V39
				C73.9,39.7,73.3,40.2,72.7,40.2z"/>
		</g>
	</g>
</g>
</svg>
