<?xml version="1.0" encoding="utf-8"?>
<!-- Generator: Adobe Illustrator 25.2.3, SVG Export Plug-In . SVG Version: 6.00 Build 0)  -->
<svg version="1.1" id="Capa_1" xmlns="http://www.w3.org/2000/svg" xmlns:xlink="http://www.w3.org/1999/xlink" x="0px" y="0px"
	 viewBox="0 0 100 100" style="enable-background:new 0 0 100 100;" xml:space="preserve">
<style type="text/css">
	.st0{fill:#C49A8B;}
	.st1{fill:#A1E8C3;}
	.st2{fill:#85ADC2;}
	.st3{fill:#CCF3E2;}
	.st4{fill:#FFFFFF;}
	.st5{fill:#3C122C;}
</style>
<g>
	<g>
		<path class="st0" d="M80,98H65.6c0-4.4,3.2-7.9,7.2-7.9C76.8,90.1,80,93.6,80,98L80,98z"/>
		<path class="st1" d="M83.8,29.7c-3.9,0-7,3.1-7,7v0.6h-8.5v-5c0-9-7.3-16.2-16.2-16.2c-9,0-16.2,7.3-16.2,16.2v21.9h-9.1
			c-0.8,0-1.5-0.7-1.5-1.5v-6c0-3.8-3.1-6.9-6.9-6.9c-3.8,0-6.9,3.1-6.9,6.9v11.5c0,5.4,4.4,9.8,9.8,9.8h14.6V98h32.4V51.3h8.5H81
			c5.4,0,9.8-4.4,9.8-9.8v-4.2v-0.6C90.8,32.9,87.7,29.7,83.8,29.7L83.8,29.7z"/>
		<g>
			<path class="st2" d="M36.2,54.2h-5.7v3.3c0,2.8-2.3,5.1-5.1,5.1h-9.2c-1.6,0-3-0.5-4.3-1.3c1.3,3.9,5,6.8,9.3,6.8h14.9V54.2z"/>
			<path class="st2" d="M83.8,29.7c-0.9,0-1.8,0.2-2.5,0.5c1.9,0.9,3.3,2.8,3.3,5V39c0,4.3-3.5,7.7-7.7,7.7h-8.3v4.5H81
				c5.4,0,9.8-4.4,9.8-9.8v-4.8C90.8,32.9,87.7,29.7,83.8,29.7L83.8,29.7z"/>
			<path class="st2" d="M52.1,16.1c-3.5,0-6.8,1.1-9.4,3c1.6-0.7,3.3-1.2,5.2-1.2c6.6,0,12,5.4,12,12v35.8c0,7.2-5.9,13.1-13.1,13.1
				H35.9V98h32.4V32.3C68.3,23.4,61,16.1,52.1,16.1L52.1,16.1z"/>
		</g>
		<path class="st0" d="M57.9,98H44.1c0-4.2,3.1-7.6,6.9-7.6C54.8,90.4,57.9,93.8,57.9,98z"/>
		<path class="st0" d="M48.6,98H28c0-6.2,4.6-11.3,10.3-11.3C44,86.7,48.6,91.8,48.6,98L48.6,98z"/>
		<path class="st3" d="M11.4,9.1l1.6,4.6c0.1,0.2,0.2,0.4,0.4,0.4l4.1,1.8c0.6,0.3,0.6,1.2,0,1.4l-4.1,1.8c-0.2,0.1-0.3,0.2-0.4,0.4
			l-1.6,4.6c-0.2,0.6-1,0.6-1.3,0l-1.6-4.6c-0.1-0.2-0.2-0.4-0.4-0.4l-4.1-1.8c-0.6-0.3-0.6-1.2,0-1.4l4.1-1.8
			c0.2-0.1,0.3-0.2,0.4-0.4l1.6-4.6C10.4,8.5,11.2,8.5,11.4,9.1L11.4,9.1z"/>
		<path class="st3" d="M84.7,0.4l1.2,3.4C86,3.9,86.1,4,86.2,4.1l3,1.4c0.4,0.2,0.4,0.9,0,1.1l-3,1.4C86.1,7.9,86,8,85.9,8.2
			l-1.2,3.4c-0.2,0.5-0.8,0.5-0.9,0l-1.2-3.4c-0.1-0.1-0.2-0.3-0.3-0.3l-3-1.4c-0.4-0.2-0.4-0.9,0-1.1l3-1.4
			c0.1-0.1,0.2-0.2,0.3-0.3l1.2-3.4C83.9-0.1,84.5-0.1,84.7,0.4z"/>
		<ellipse class="st1" cx="82.5" cy="72.2" rx="3.6" ry="3.6"/>
		<circle class="st1" cx="89.5" cy="65.1" r="1.5"/>
	</g>
	<g>
		<path class="st4" d="M42.7,42.7c-1.1,0-2-0.9-2-2c0-0.5,0-0.9,0-1.4c0-2,0-4,0.2-6c0.1-1.1,1.1-1.9,2.2-1.8
			c1.1,0.1,1.9,1.1,1.8,2.2c-0.2,1.8-0.2,3.7-0.2,5.6c0,0.5,0,0.9,0,1.4C44.7,41.8,43.8,42.7,42.7,42.7
			C42.7,42.7,42.7,42.7,42.7,42.7L42.7,42.7z"/>
		<path class="st4" d="M45.1,29.3c-0.5,0-0.9-0.2-1.3-0.5c-0.8-0.7-0.9-2-0.2-2.8c0.2-0.3,0.5-0.5,0.7-0.8c0.8-0.8,2-0.7,2.8,0.1
			c0.8,0.8,0.7,2-0.1,2.8c-0.2,0.1-0.3,0.3-0.4,0.5C46.3,29.1,45.7,29.3,45.1,29.3L45.1,29.3z"/>
		<g>
			<path class="st5" d="M56,73.2c-0.7,0-1.2-0.5-1.2-1.2v-2.1c0-0.7,0.5-1.2,1.2-1.2c0.7,0,1.2,0.5,1.2,1.2V72
				C57.2,72.7,56.6,73.2,56,73.2z"/>
			<path class="st5" d="M56,58.7c-0.7,0-1.2-0.5-1.2-1.2v-2.1c0-0.7,0.5-1.2,1.2-1.2c0.7,0,1.2,0.5,1.2,1.2v2.1
				C57.2,58.1,56.6,58.7,56,58.7z"/>
			<path class="st5" d="M60.8,66c-0.7,0-1.2-0.5-1.2-1.2v-2.1c0-0.7,0.5-1.2,1.2-1.2c0.7,0,1.2,0.5,1.2,1.2v2.1
				C62,65.5,61.5,66,60.8,66z"/>
			<path class="st5" d="M59.7,42.7c-0.7,0-1.2-0.5-1.2-1.2v-2.1c0-0.7,0.5-1.2,1.2-1.2c0.7,0,1.2,0.5,1.2,1.2v2.1
				C60.9,42.2,60.4,42.7,59.7,42.7z"/>
			<path class="st5" d="M82.6,45.6c-0.7,0-1.2-0.5-1.2-1.2v-2.1c0-0.7,0.5-1.2,1.2-1.2s1.2,0.5,1.2,1.2v2.1
				C83.8,45.1,83.3,45.6,82.6,45.6z"/>
			<path class="st5" d="M18.4,57.2c-0.7,0-1.2-0.5-1.2-1.2v-2.1c0-0.7,0.5-1.2,1.2-1.2c0.7,0,1.2,0.5,1.2,1.2V56
				C19.6,56.7,19.1,57.2,18.4,57.2z"/>
			<path class="st5" d="M25.9,64c-0.7,0-1.2-0.5-1.2-1.2v-2.1c0-0.7,0.5-1.2,1.2-1.2s1.2,0.5,1.2,1.2v2.1C27.1,63.5,26.5,64,25.9,64
				z"/>
			<path class="st5" d="M95.8,30.2c-0.8-0.8-2-0.8-2.8,0l-1.7,1.7c-1-1.5-2.3-2.7-3.9-3.4l1-2.3c0.4-1,0-2.2-1-2.6
				c-1-0.4-2.2,0-2.6,1l-1.4,3.1c-4.3,0.2-7.8,3.4-8.4,7.6h-4.7v-3c0-3.5-1-6.8-2.7-9.6l3.3-3c0.8-0.7,0.9-2,0.1-2.8
				c-0.7-0.8-2-0.9-2.8-0.1l-3.1,2.8c-1-1.1-2.2-2-3.4-2.8l2.1-4.2c0.5-1,0.1-2.2-0.9-2.6c-1-0.5-2.2-0.1-2.6,0.9l-2.1,4.3
				c-1.3-0.4-2.6-0.7-4-0.9V9.5c0-1.1-0.9-2-2-2c-1.1,0-2,0.9-2,2v4.8c-1.4,0.1-2.8,0.5-4.1,0.9l-2.1-4.2c-0.5-1-1.7-1.4-2.6-0.9
				c-1,0.5-1.4,1.7-0.9,2.6l2.1,4.2c-1.3,0.8-2.4,1.7-3.5,2.8l-3-2.8c-0.8-0.7-2.1-0.7-2.8,0.1c-0.7,0.8-0.7,2.1,0.1,2.8l3.3,3
				c-1.7,2.8-2.8,6.1-2.8,9.6v19.9h-6.6v-5.5c0-4.7-3.6-8.5-8.1-8.9l-1.5-3.4c-0.4-1-1.6-1.5-2.6-1c-1,0.4-1.5,1.6-1,2.6l1.1,2.4
				c-1.6,0.7-3,1.8-4,3.2l-1.6-1.7c-0.8-0.8-2-0.8-2.8,0c-0.8,0.8-0.8,2,0,2.8l2.9,2.9c0,0.3-0.1,0.6-0.1,1v11.5
				c0,6.5,5.3,11.8,11.8,11.8h12.6v15.6c-4.6,1.9-7.8,6.8-7.8,12.4c0,1.1,0.9,2,2,2H80c1.1,0,2-0.9,2-2c0-5.5-4.1-9.9-9.2-9.9
				c-0.9,0-1.7,0.1-2.5,0.4V53.3H81c6.5,0,11.8-5.3,11.8-11.8v-4.8c0-0.2,0-0.4,0-0.7l3.1-3.1C96.6,32.2,96.6,31,95.8,30.2
				L95.8,30.2z M21.2,66.1c-4.3,0-7.8-3.5-7.8-7.8V46.8c0-2.7,2.2-4.9,4.9-4.9c2.7,0,4.9,2.2,4.9,4.9v6c0,1.9,1.6,3.5,3.5,3.5h7.1
				v9.9L21.2,66.1z M42.3,96H30.2c0.8-4.2,4.1-7.3,8.1-7.3c2.4,0,4.6,1.2,6.1,3C43.4,92.9,42.7,94.4,42.3,96z M46.4,96
				c0.7-2.1,2.5-3.6,4.6-3.6c2.1,0,3.9,1.5,4.6,3.6H46.4z M66.3,96h-6.6c-0.4-1.9-1.3-3.6-2.5-4.9V78.2c0-0.7-0.5-1.2-1.2-1.2
				c-0.7,0-1.2,0.5-1.2,1.2v11.2c-1.1-0.6-2.4-0.9-3.8-0.9c-1.2,0-2.4,0.3-3.5,0.8c-0.4-0.5-0.8-0.9-1.2-1.3V69
				c0-0.7-0.5-1.2-1.2-1.2c-0.7,0-1.2,0.5-1.2,1.2v17.2c-1.7-0.9-3.6-1.5-5.6-1.5c-0.2,0-0.3,0-0.5,0V32.3c0-7.9,6.4-14.2,14.2-14.2
				c7.9,0,14.2,6.4,14.2,14.2L66.3,96L66.3,96z M72.8,92.1c2.3,0,4.2,1.7,4.9,4h-7.4v-3.2C71,92.3,71.9,92.1,72.8,92.1z M88.8,41.5
				c0,4.3-3.5,7.8-7.8,7.8H70.3v-10h6.5c1.1,0,2-0.9,2-2v-0.6c0-2.8,2.2-5,5-5s5,2.2,5,5L88.8,41.5z"/>
		</g>
	</g>
</g>
</svg>
