<?xml version="1.0" encoding="utf-8"?>
<!-- Generator: Adobe Illustrator 25.2.3, SVG Export Plug-In . SVG Version: 6.00 Build 0)  -->
<svg version="1.1" id="Capa_1" xmlns="http://www.w3.org/2000/svg" xmlns:xlink="http://www.w3.org/1999/xlink" x="0px" y="0px"
	 viewBox="0 0 100 100" style="enable-background:new 0 0 100 100;" xml:space="preserve">
<style type="text/css">
	.st0{fill:#96B4EB;}
	.st1{fill:#FFFFFF;}
	.st2{fill:#E1BDFC;}
	.st3{fill:#8286EA;}
	.st4{fill:#A1E8C3;}
	.st5{fill:#CCF3E2;}
	.st6{fill:#C49A8B;}
	.st7{fill:#C1E5EF;}
	.st8{fill:#3C122C;}
</style>
<g>
	<g>
		<path class="st0" d="M41,20.4c-8.4,0-34.6,59.9-34.6,59.9h69.2C75.6,80.3,49.3,20.4,41,20.4L41,20.4z"/>
		<path class="st1" d="M56.7,40.8c-7-13.3-12-20.4-15.7-20.4s-8.7,7.7-15.6,21c0,0,4.2,3.9,7.3,3.9c3.1,0,5-3.3,7.9-3.5
			c2.9-0.1,6.3,3.5,8.6,3.5C51.3,45.4,56.7,40.8,56.7,40.8L56.7,40.8z"/>
		<path class="st2" d="M41,20.4c-1,0-2.3,0.9-3.8,2.5c3.5,4.2,8.1,13,12.4,22c2.6-0.6,4.9-1.9,7.1-3.5C50.5,29.9,44.3,20.4,41,20.4z
			"/>
		<path class="st3" d="M56.7,41.4c-2.1,1.6-4.5,2.8-7.1,3.5c3,6.2,5.7,12.4,7.9,17.3c1.9,4.3-1.3,9-5.9,9h-41
			c-2.5,5.5-4.1,9.2-4.1,9.2h69.2C75.6,80.3,66.1,58.7,56.7,41.4L56.7,41.4z"/>
		<path class="st4" d="M91,75.1l-4.5-5.6h2.5c1.4,0,2.2-1.7,1.3-2.8L85.1,60h2.3c1.1,0,1.7-1.3,1-2.2l-6-7.6c-0.5-0.6-1.3-0.6-1.8,0
			l-6,7.6c-0.7,0.9-0.1,2.2,1,2.2h2.3l-5.3,6.7c-0.9,1.1-0.1,2.8,1.3,2.8h2.5l-4.5,5.6c-1,1.2-0.1,3,1.4,3h16.2
			C91.1,78.1,92,76.3,91,75.1L91,75.1z"/>
		<path class="st5" d="M97.5,97.9H2.5c-1.3,0-2.3-1-2.3-2.3V81.1c0-1.3,1-2.3,2.3-2.3h95.1c1.3,0,2.3,1,2.3,2.3v14.6
			C99.8,96.9,98.8,97.9,97.5,97.9z"/>
		<path class="st6" d="M0.2,87v8.7c0,1.3,1,2.3,2.3,2.3h95.1c1.3,0,2.3-1,2.3-2.3V87H0.2z"/>
		<path class="st7" d="M63.6,0.5l1.7,4.8c0.1,0.2,0.2,0.4,0.4,0.4l4.2,1.9c0.6,0.3,0.6,1.2,0,1.5L65.7,11c-0.2,0.1-0.3,0.2-0.4,0.4
			l-1.7,4.8c-0.2,0.7-1.1,0.7-1.3,0l-1.7-4.8c-0.1-0.2-0.2-0.4-0.4-0.4L56,9.1c-0.6-0.3-0.6-1.2,0-1.5l4.2-1.9
			c0.2-0.1,0.3-0.2,0.4-0.4l1.7-4.8C62.5-0.2,63.4-0.2,63.6,0.5z"/>
		<path class="st7" d="M88.4,19.7l1.3,3.5c0.1,0.2,0.2,0.3,0.3,0.3l3.1,1.4c0.4,0.2,0.4,0.9,0,1.1L90,27.5c-0.1,0.1-0.2,0.2-0.3,0.3
			l-1.3,3.5c-0.2,0.5-0.8,0.5-1,0l-1.3-3.5c-0.1-0.2-0.2-0.3-0.3-0.3l-3.1-1.4c-0.4-0.2-0.4-0.9,0-1.1l3.1-1.4
			c0.1-0.1,0.2-0.2,0.3-0.3l1.3-3.5C87.6,19.2,88.2,19.2,88.4,19.7z"/>
		<g>
			<ellipse class="st0" cx="11.5" cy="17.1" rx="3.7" ry="3.7"/>
			<circle class="st0" cx="24.9" cy="7.2" r="1.6"/>
		</g>
	</g>
	<g>
		<path class="st8" d="M97.5,76.8h-4.1c0.1-1-0.1-2.1-0.8-2.9l-2.1-2.6c0.8-0.4,1.5-1,1.9-1.8c0.6-1.3,0.5-2.9-0.4-4l-3-3.8
			c0.6-0.3,1.1-0.8,1.4-1.5c0.6-1.2,0.4-2.6-0.4-3.6L84,49c-0.6-0.8-1.5-1.2-2.5-1.2S79.6,48.2,79,49c0,0,0,0,0,0l-6,7.6
			c-0.8,1-1,2.4-0.4,3.6c0.3,0.6,0.8,1.1,1.4,1.5l-3,3.7c-2.3-4.8-4.9-10.4-7.8-15.9c-4.4-8.8-8.4-15.8-11.6-20.8
			C45.8,19.6,43,18.4,41,18.4s-4.8,1.2-10.7,10.3c-3.3,5-7.2,12-11.6,20.8C13.1,60.5,8,71.7,5.7,76.8H2.5c-2.4,0-4.3,1.9-4.3,4.3
			v14.6c0,2.4,1.9,4.3,4.3,4.3h95.1c2.4,0,4.3-1.9,4.3-4.3V81.1C101.9,78.7,99.9,76.8,97.5,76.8z M84.1,62.1l4.3,5.4H74.6l4.3-5.4
			H84.1z M77.4,71.6h8.2l3.6,4.5H73.8L77.4,71.6z M81.5,52.5l4.4,5.5h-8.7L81.5,52.5z M33.5,31.4c5.2-8.2,7.3-8.8,7.5-8.9
			c0.2,0.1,2.3,0.7,7.5,8.9c1.7,2.7,3.7,6,5.8,9.8c-1,0.4-1.7,1-2.3,1.4C51,43.4,50.3,44,48.7,44s-2.3-0.6-3.3-1.4
			c-1.1-0.9-2.4-1.9-4.8-1.9c-2.5,0-3.8,1.1-4.8,1.9c-0.9,0.8-1.7,1.4-3.3,1.4s-2.3-0.6-3.3-1.4c-0.5-0.4-1-0.8-1.6-1.1
			C29.7,37.5,31.7,34.2,33.5,31.4L33.5,31.4z M22.2,51.7c1.5-2.9,2.9-5.6,4.2-8.1c0.4,0.2,0.8,0.6,1.3,0.9c1.1,0.9,2.4,1.9,4.8,1.9
			c2.5,0,3.8-1.1,4.8-1.9c0.9-0.8,1.7-1.4,3.3-1.4c1.6,0,2.3,0.6,3.3,1.4c1.1,0.9,2.4,1.9,4.8,1.9c2.5,0,3.8-1.1,4.8-1.9
			c0.6-0.5,1.2-0.9,1.9-1.2c1.4,2.6,2.8,5.3,4.3,8.3c4.2,8.2,8,16.4,10.6,22.1l0,0c-0.7,0.8-1,1.9-0.8,2.9H10.2
			C12.7,71.3,17.2,61.5,22.2,51.7L22.2,51.7z M2.5,80.9h95.1c0.1,0,0.2,0.1,0.2,0.2v4.6H2.3v-4.6C2.3,81,2.3,80.9,2.5,80.9L2.5,80.9
			z M97.5,95.9H2.5c-0.1,0-0.2-0.1-0.2-0.2v-7.5h95.5v7.5C97.7,95.8,97.7,95.9,97.5,95.9L97.5,95.9z"/>
		<path class="st1" d="M22.6,66.5c-0.3,0-0.6-0.1-0.9-0.2c-1-0.5-1.5-1.7-1-2.7l1.9-4.2c0.5-1,1.7-1.5,2.7-1c1,0.5,1.5,1.7,1,2.7
			l-1.9,4.2C24.1,66.1,23.4,66.5,22.6,66.5L22.6,66.5z"/>
		<path class="st1" d="M27.1,57c-0.3,0-0.6-0.1-0.9-0.2c-1-0.5-1.5-1.7-1-2.7l0.3-0.7c0.5-1,1.7-1.5,2.7-1c1,0.5,1.5,1.7,1,2.7
			l-0.3,0.7C28.6,56.6,27.8,57,27.1,57L27.1,57z"/>
		<g>
			<path class="st8" d="M46.2,71.1c-0.7,0-1.2-0.6-1.2-1.2v-2.3c0-0.7,0.6-1.2,1.2-1.2s1.2,0.6,1.2,1.2v2.3
				C47.5,70.5,46.9,71.1,46.2,71.1z"/>
			<path class="st8" d="M54.3,67.9c-0.7,0-1.2-0.6-1.2-1.2v-2.3c0-0.7,0.6-1.2,1.2-1.2c0.7,0,1.2,0.6,1.2,1.2v2.3
				C55.5,67.3,55,67.9,54.3,67.9z"/>
			<path class="st8" d="M49,59.5c-0.7,0-1.2-0.6-1.2-1.2v-2.3c0-0.7,0.6-1.2,1.2-1.2s1.2,0.6,1.2,1.2v2.3
				C50.2,58.9,49.7,59.5,49,59.5z"/>
		</g>
	</g>
</g>
</svg>
